PathFileType	4	(X/Y/Z)	s02c0101.trc
DataRate	CameraRate	NumFrames	NumMarkers	Units	OrigDataRate	OrigDataStartFrame	OrigNumFrames
200	200	5	51	mm	200	750	2000
Frame#	Time	racr			lacr			c7			jug			rlel			rdr			llel			ldr			s2			lic			ric			lasi			rasi			rpsi			lpsi			rgt			lgt			rth1			rth2			rth3			rth4			rlfc			rmfc			rsh1			rsh2			rsh3			rsh4			rlmal			rmmal			rtoe			rmt5			rmt1			lth1			lth2			lth4			lth3			llfc			lmfc			lsh1			lsh2			lsh3			lsh4			llmal			lmmal			lcal			ltoe			lmt1			lmt5			SBIKE			LBIKE			RBIKE			
		X1	Y1	Z1	X2	Y2	Z2	X3	Y3	Z3	X4	Y4	Z4	X5	Y5	Z5	X6	Y6	Z6	X7	Y7	Z7	X8	Y8	Z8	X9	Y9	Z9	X10	Y10	Z10	X11	Y11	Z11	X12	Y12	Z12	X13	Y13	Z13	X14	Y14	Z14	X15	Y15	Z15	X16	Y16	Z16	X17	Y17	Z17	X18	Y18	Z18	X19	Y19	Z19	X20	Y20	Z20	X21	Y21	Z21	X22	Y22	Z22	X23	Y23	Z23	X24	Y24	Z24	X25	Y25	Z25	X26	Y26	Z26	X27	Y27	Z27	X28	Y28	Z28	X29	Y29	Z29	X30	Y30	Z30	X31	Y31	Z31	X32	Y32	Z32	X33	Y33	Z33	X34	Y34	Z34	X35	Y35	Z35	X36	Y36	Z36	X37	Y37	Z37	X38	Y38	Z38	X39	Y39	Z39	X40	Y40	Z40	X41	Y41	Z41	X42	Y42	Z42	X43	Y43	Z43	X44	Y44	Z44	X45	Y45	Z45	X46	Y46	Z46	X47	Y47	Z47	X48	Y48	Z48	X49	Y49	Z49	X50	Y50	Z50	X51	Y51	Z51	
750	3.7500	522.475455	1244.279147	-151.392347	497.887085	1267.007106	-501.340114	500.555522	1313.456608	-323.774668	459.232344	1174.894840	-328.530122	563.676013	987.610184	-68.394971	722.260797	844.838676	-131.588856	487.631689	983.030430	-558.732755	683.575237	857.111612	-508.274757	-5.465472	1101.433535	-309.983961	119.982337	1122.679795	-454.200585	130.660851	1106.467083	-169.945831	167.068482	1096.570468	-432.794456	178.342117	1078.346890	-196.799847	18.201877	1147.082291	-255.220205	13.648203	1147.918177	-343.728478	104.685921	1010.684779	-137.569626	87.845255	1033.298369	-489.565766	193.984371	959.126626	-139.691417	270.816437	916.261192	-145.875804	320.143326	849.534513	-123.606134	291.221143	936.392127	-169.659460	390.790870	727.433200	-154.171817	372.469089	708.955263	-262.798014	335.030655	627.913059	-138.363770	293.340623	550.454219	-155.939797	222.508145	501.030507	-149.955221	303.658146	544.606641	-194.128970	134.948691	421.948389	-152.980031	155.311990	430.639816	-233.927166	237.301269	217.153594	-187.862575	152.997789	289.420469	-134.896426	180.316649	274.421810	-241.985305	218.862290	973.135346	-504.159896	301.320798	947.883572	-499.462385	318.209193	975.535368	-481.383052	360.287875	881.133812	-498.716773	441.572945	818.770755	-475.425742	449.371109	787.357807	-374.812190	429.135302	714.167832	-496.926213	427.554043	628.542352	-481.953546	381.842776	550.888032	-485.793791	445.805758	626.604475	-445.600100	333.841448	453.667706	-476.863489	352.188105	449.855166	-398.128535	268.467121	397.264297	-442.074173	557.605373	389.736040	-445.078970	473.977652	389.599421	-399.605508	452.060151	367.091292	-507.761625	-165.282651	858.567973	-313.717535	32.631056	82.352674	-515.255783	32.907120	82.250401	-115.157135	
751	3.7550	521.506169	1243.827142	-151.405892	498.295210	1266.868034	-501.311841	500.071576	1313.368773	-323.865497	459.055506	1174.828799	-328.825503	563.483082	987.383890	-68.022830	722.124436	844.813765	-131.450591	488.332834	983.312980	-560.034029	683.716584	856.823441	-508.359922	-4.261792	1099.615603	-306.286097	120.491951	1121.096114	-455.291297	130.673584	1105.598044	-170.620893	167.932272	1095.065647	-433.950372	178.589121	1077.920932	-197.676355	17.860281	1144.819077	-256.913273	13.554131	1145.985281	-344.749852	105.718031	1010.181933	-137.870009	88.201477	1030.819395	-489.955263	195.665680	960.321032	-140.255964	273.415715	919.375303	-146.494070	324.547803	854.025182	-124.195504	292.946651	939.432306	-171.239447	396.290378	732.235708	-154.669538	378.147016	713.859401	-262.803049	339.732822	633.954393	-138.665441	296.304577	557.262511	-156.332827	224.746416	509.314166	-150.160347	306.462359	551.313126	-194.505758	135.484877	432.244516	-153.060032	156.185285	440.890472	-234.027599	234.584041	226.069459	-187.913460	151.477365	299.694184	-134.867258	178.907290	284.361956	-242.015322	218.416905	968.876556	-505.053799	299.878684	941.646271	-499.404398	317.805094	969.776093	-482.751979	358.289477	874.518642	-499.511704	439.084382	811.750459	-476.159750	447.364551	780.603410	-374.787958	428.091554	706.702528	-497.438947	427.849092	621.229020	-482.893444	383.203621	542.730353	-486.428512	446.171664	619.469591	-446.370216	336.937790	444.098122	-477.269890	355.036894	440.959373	-399.113847	271.892279	388.575943	-442.184913	560.752598	377.748870	-444.835353	477.121577	378.964115	-399.907667	454.971272	356.441146	-507.724646	-165.284176	858.766516	-313.160580	32.630901	82.347070	-515.269657	32.913558	82.240916	-115.163442	
752	3.7600	520.789963	1243.296749	-151.766249	498.770393	1266.729511	-501.209815	499.695118	1313.271976	-324.061661	458.769007	1174.789287	-329.115490	563.136520	987.067031	-67.690075	721.925443	844.881210	-131.360297	489.148432	983.456839	-561.534561	683.773912	856.493294	-508.606913	-4.078097	1098.229013	-307.252760	121.153004	1119.645098	-456.270650	130.708306	1105.067804	-171.321448	168.872785	1093.602962	-435.152664	178.805401	1077.782471	-198.631933	16.960589	1142.958566	-257.525112	13.913325	1144.485821	-345.989136	106.744162	1009.845567	-138.239147	88.630148	1028.687644	-490.304554	197.201125	961.685709	-140.691623	275.835303	922.487467	-147.218061	328.693162	858.753363	-124.716075	294.684707	942.633760	-172.595470	401.734047	737.361416	-155.082762	383.596631	719.262601	-263.040540	344.341816	640.276896	-139.018947	298.110301	564.297640	-157.623800	226.833609	517.946144	-150.432365	309.230957	558.327943	-194.884863	136.240304	442.828631	-153.173685	157.283372	451.115506	-234.085328	232.628731	235.490376	-187.870065	150.489889	310.163585	-134.927438	177.881982	294.823666	-241.993439	217.105996	964.696051	-505.565263	298.925031	936.074865	-500.313866	317.461529	963.936509	-483.979714	356.176723	867.971423	-500.238392	436.590630	804.374679	-476.838478	444.907489	774.094021	-375.426048	426.571195	699.564093	-498.120530	427.828891	614.019277	-483.741442	384.274757	534.894937	-486.989830	446.171677	612.491819	-447.139465	339.608790	434.757911	-477.643031	358.077967	431.363510	-399.262505	274.200189	380.380532	-442.608025	563.327342	365.433345	-444.651359	479.747534	368.333879	-400.135524	457.335010	345.685609	-507.648529	-165.282717	858.935947	-312.734578	32.633272	82.312936	-515.263443	32.743002	82.476992	-115.120453	
753	3.7650	520.006199	1243.122497	-151.659239	499.324010	1266.473047	-501.209083	499.440792	1313.251445	-324.228818	458.496865	1174.733014	-329.410460	562.685792	986.808971	-67.460917	721.690606	845.074288	-131.398073	489.980613	983.494478	-563.201643	683.769553	856.162813	-509.030010	-3.829878	1097.092700	-308.231313	121.885435	1118.418352	-457.262739	130.730089	1104.813818	-172.053758	169.852527	1092.454895	-436.316305	178.994795	1077.810781	-199.453241	16.833877	1141.068932	-258.834964	14.158016	1143.127025	-346.977200	107.971714	1009.939256	-138.288358	89.169209	1026.925430	-490.633567	198.732630	963.308763	-140.756157	278.145523	925.961375	-147.689443	332.730740	863.710169	-125.131617	296.173382	946.179492	-173.708296	407.274641	742.954352	-155.413517	388.880395	724.837658	-263.436238	348.975471	646.740887	-139.330198	301.985400	572.072208	-157.184985	228.689166	527.245426	-150.412406	312.151247	565.665274	-195.115752	137.242698	453.403809	-153.307101	158.570712	461.460319	-234.344274	231.415862	245.213863	-188.088392	150.027663	320.721008	-134.994438	177.255768	305.264433	-242.087599	216.697758	960.830677	-506.248189	297.986658	930.627679	-501.155882	317.076245	958.234047	-485.079626	353.896646	861.469752	-500.987648	433.577705	797.101292	-477.643461	445.142860	768.355526	-376.643647	424.537100	692.361426	-498.903494	427.176665	607.036146	-484.607385	384.818812	527.044559	-487.445666	445.636113	605.611736	-448.076471	341.721754	425.582466	-477.979220	360.538664	422.283891	-399.733672	276.661398	372.142065	-442.669932	565.265301	352.952856	-444.551569	481.821281	357.862090	-400.974218	458.994329	334.930616	-507.552723	-165.255703	859.178203	-312.200674	32.603354	82.277634	-515.286160	32.736067	82.469627	-115.119892	
754	3.7700	519.180101	1242.823591	-151.522145	499.872660	1266.080312	-501.295707	499.335132	1313.248965	-324.381490	458.255101	1174.718725	-329.542468	562.106898	986.560130	-67.296960	721.472508	845.255157	-131.460649	490.855771	983.450781	-565.078674	683.765730	855.818074	-509.712240	-3.444838	1096.301819	-309.164351	122.675304	1117.410741	-458.318059	130.711226	1104.780669	-172.849932	170.949254	1091.443594	-437.522820	179.181941	1077.971128	-200.181877	17.051951	1139.409437	-260.090842	14.569363	1142.037614	-347.739057	109.031803	1010.267982	-138.207513	89.808435	1025.441915	-490.944307	200.077270	965.210320	-140.968524	280.339043	929.661632	-148.287861	336.529700	868.884144	-125.489049	299.041847	951.329477	-172.787058	412.568000	749.163676	-155.769710	394.206012	730.951490	-263.837874	353.359949	653.554235	-139.700070	304.320929	579.488785	-158.421356	231.433299	535.758510	-150.548789	315.105936	573.182833	-195.634896	138.546746	464.263858	-153.589722	160.300506	471.922765	-234.658296	230.859314	255.105662	-188.070169	150.142986	331.470756	-135.089859	177.417039	315.629800	-242.159967	216.384740	957.055414	-506.903367	297.068393	925.195670	-501.869526	316.765804	952.518261	-486.009618	351.499692	854.965865	-501.944319	430.421213	789.640538	-478.282931	442.862163	760.625118	-377.840722	421.991193	685.064295	-499.741334	426.134716	599.664382	-485.517374	384.892145	519.122707	-488.057491	444.615969	598.568360	-448.967438	343.355032	416.393605	-478.375153	362.660352	413.871387	-401.106761	278.223773	364.204592	-442.854845	566.655742	340.319518	-444.466459	483.128255	346.611410	-400.499707	460.026306	324.000293	-507.523186	-165.342711	859.246324	-312.240908	32.603870	82.236411	-515.285308	32.739634	82.468023	-115.140529	
